<?xml version="1.0" encoding="UTF-8" standalone="no"?>
<!DOCTYPE svg PUBLIC "-//W3C//DTD SVG 1.1//EN"
 "http://www.w3.org/Graphics/SVG/1.1/DTD/svg11.dtd">
<!-- Generated by graphviz version 2.38.0 (20140413.2041)
 -->
<!-- Title: controllers_diagram Pages: 1 -->
<svg width="454pt" height="339pt"
 viewBox="0.00 0.00 453.74 339.00" xmlns="http://www.w3.org/2000/svg" xmlns:xlink="http://www.w3.org/1999/xlink">
<g id="graph0" class="graph" transform="scale(1 1) rotate(0) translate(89.0518 233.5)">
<title>controllers_diagram</title>
<polygon fill="none" stroke="none" points="-89.0518,105.5 -89.0518,-233.5 364.688,-233.5 364.688,105.5 -89.0518,105.5"/>
<!-- _diagram_info -->
<g id="node1" class="node"><title>_diagram_info</title>
<text text-anchor="start" x="161.312" y="-212.1" font-family="Times,serif" font-size="13.00">Controllers diagram</text>
<text text-anchor="start" x="161.312" y="-199.1" font-family="Times,serif" font-size="13.00">Date: Aug 29 2016 &#45; 20:24</text>
<text text-anchor="start" x="161.312" y="-186.1" font-family="Times,serif" font-size="13.00">Migration version: 20160829230431</text>
<text text-anchor="start" x="161.312" y="-173.1" font-family="Times,serif" font-size="13.00">Generated by RailRoady 1.5.1</text>
<text text-anchor="start" x="161.312" y="-160.1" font-family="Times,serif" font-size="13.00">http://railroady.prestonlee.com</text>
</g>
<!-- ApplicationController -->
<g id="node2" class="node"><title>ApplicationController</title>
<path fill="none" stroke="black" d="M-72.8208,-137C-72.8208,-137 42.8208,-137 42.8208,-137 48.8208,-137 54.8208,-143 54.8208,-149 54.8208,-149 54.8208,-217 54.8208,-217 54.8208,-223 48.8208,-229 42.8208,-229 42.8208,-229 -72.8208,-229 -72.8208,-229 -78.8208,-229 -84.8208,-223 -84.8208,-217 -84.8208,-217 -84.8208,-149 -84.8208,-149 -84.8208,-143 -78.8208,-137 -72.8208,-137"/>
<text text-anchor="middle" x="-15" y="-213.8" font-family="Times,serif" font-size="14.00">ApplicationController</text>
<polyline fill="none" stroke="black" points="-84.8208,-207 54.8208,-207 "/>
<polyline fill="none" stroke="black" points="-84.8208,-183 54.8208,-183 "/>
<polyline fill="none" stroke="black" points="-84.8208,-159 54.8208,-159 "/>
<text text-anchor="start" x="-76.8208" y="-143.8" font-family="Times,serif" font-size="14.00">_layout</text>
</g>
<!-- ComplaintsController -->
<g id="node3" class="node"><title>ComplaintsController</title>
<path fill="none" stroke="black" d="M-73.0518,101C-73.0518,101 41.0518,101 41.0518,101 47.0518,101 53.0518,95 53.0518,89 53.0518,89 53.0518,-89 53.0518,-89 53.0518,-95 47.0518,-101 41.0518,-101 41.0518,-101 -73.0518,-101 -73.0518,-101 -79.0518,-101 -85.0518,-95 -85.0518,-89 -85.0518,-89 -85.0518,89 -85.0518,89 -85.0518,95 -79.0518,101 -73.0518,101"/>
<text text-anchor="middle" x="-16" y="-85.8" font-family="Times,serif" font-size="14.00">ComplaintsController</text>
<polyline fill="none" stroke="black" points="-85.0518,-79 53.0518,-79 "/>
<text text-anchor="start" x="-77.0518" y="-63.8" font-family="Times,serif" font-size="14.00">index</text>
<text text-anchor="start" x="-77.0518" y="-49.8" font-family="Times,serif" font-size="14.00">destroy</text>
<text text-anchor="start" x="-77.0518" y="-35.8" font-family="Times,serif" font-size="14.00">edit</text>
<text text-anchor="start" x="-77.0518" y="-21.8" font-family="Times,serif" font-size="14.00">create</text>
<text text-anchor="start" x="-77.0518" y="-7.8" font-family="Times,serif" font-size="14.00">new</text>
<text text-anchor="start" x="-77.0518" y="6.2" font-family="Times,serif" font-size="14.00">show</text>
<text text-anchor="start" x="-77.0518" y="20.2" font-family="Times,serif" font-size="14.00">update</text>
<polyline fill="none" stroke="black" points="-85.0518,27 53.0518,27 "/>
<polyline fill="none" stroke="black" points="-85.0518,51 53.0518,51 "/>
<text text-anchor="start" x="-77.0518" y="66.2" font-family="Times,serif" font-size="14.00">_layout</text>
<text text-anchor="start" x="-77.0518" y="80.2" font-family="Times,serif" font-size="14.00">complaint_params</text>
<text text-anchor="start" x="-77.0518" y="94.2" font-family="Times,serif" font-size="14.00">set_complaint</text>
</g>
<!-- EnterprisesController -->
<g id="node4" class="node"><title>EnterprisesController</title>
<path fill="none" stroke="black" d="M96.7378,84C96.7378,84 209.262,84 209.262,84 215.262,84 221.262,78 221.262,72 221.262,72 221.262,-106 221.262,-106 221.262,-112 215.262,-118 209.262,-118 209.262,-118 96.7378,-118 96.7378,-118 90.7378,-118 84.7378,-112 84.7378,-106 84.7378,-106 84.7378,72 84.7378,72 84.7378,78 90.7378,84 96.7378,84"/>
<text text-anchor="middle" x="153" y="-102.8" font-family="Times,serif" font-size="14.00">EnterprisesController</text>
<polyline fill="none" stroke="black" points="84.7378,-96 221.262,-96 "/>
<text text-anchor="start" x="92.7378" y="-80.8" font-family="Times,serif" font-size="14.00">index</text>
<text text-anchor="start" x="92.7378" y="-66.8" font-family="Times,serif" font-size="14.00">destroy</text>
<text text-anchor="start" x="92.7378" y="-52.8" font-family="Times,serif" font-size="14.00">edit</text>
<text text-anchor="start" x="92.7378" y="-38.8" font-family="Times,serif" font-size="14.00">create</text>
<text text-anchor="start" x="92.7378" y="-24.8" font-family="Times,serif" font-size="14.00">new</text>
<text text-anchor="start" x="92.7378" y="-10.8" font-family="Times,serif" font-size="14.00">show</text>
<text text-anchor="start" x="92.7378" y="3.2" font-family="Times,serif" font-size="14.00">update</text>
<polyline fill="none" stroke="black" points="84.7378,10 221.262,10 "/>
<polyline fill="none" stroke="black" points="84.7378,34 221.262,34 "/>
<text text-anchor="start" x="92.7378" y="49.2" font-family="Times,serif" font-size="14.00">_layout</text>
<text text-anchor="start" x="92.7378" y="63.2" font-family="Times,serif" font-size="14.00">enterprise_params</text>
<text text-anchor="start" x="92.7378" y="77.2" font-family="Times,serif" font-size="14.00">set_enterprise</text>
</g>
</g>
</svg>
