<?xml version="1.0" encoding="UTF-8" standalone="no"?>
<!DOCTYPE svg PUBLIC "-//W3C//DTD SVG 1.1//EN"
 "http://www.w3.org/Graphics/SVG/1.1/DTD/svg11.dtd">
<!-- Generated by graphviz version 2.38.0 (20140413.2041)
 -->
<!-- Title: models_diagram Pages: 1 -->
<svg width="818pt" height="358pt"
 viewBox="0.00 0.00 818.32 358.00" xmlns="http://www.w3.org/2000/svg" xmlns:xlink="http://www.w3.org/1999/xlink">
<g id="graph0" class="graph" transform="scale(1 1) rotate(0) translate(4 354)">
<title>models_diagram</title>
<polygon fill="none" stroke="none" points="-4,4 -4,-354 814.323,-354 814.323,4 -4,4"/>
<!-- _diagram_info -->
<g id="node1" class="node"><title>_diagram_info</title>
<text text-anchor="start" x="8" y="-265.6" font-family="Times,serif" font-size="13.00">Models diagram</text>
<text text-anchor="start" x="8" y="-252.6" font-family="Times,serif" font-size="13.00">Date: Aug 29 2016 &#45; 20:24</text>
<text text-anchor="start" x="8" y="-239.6" font-family="Times,serif" font-size="13.00">Migration version: 20160829230431</text>
<text text-anchor="start" x="8" y="-226.6" font-family="Times,serif" font-size="13.00">Generated by RailRoady 1.5.1</text>
<text text-anchor="start" x="8" y="-213.6" font-family="Times,serif" font-size="13.00">http://railroady.prestonlee.com</text>
</g>
<!-- Complaint -->
<g id="node2" class="node"><title>Complaint</title>
<path fill="none" stroke="black" d="M387.825,-0.5C387.825,-0.5 611.55,-0.5 611.55,-0.5 617.55,-0.5 623.55,-6.5 623.55,-12.5 623.55,-12.5 623.55,-88.5 623.55,-88.5 623.55,-94.5 617.55,-100.5 611.55,-100.5 611.55,-100.5 387.825,-100.5 387.825,-100.5 381.825,-100.5 375.825,-94.5 375.825,-88.5 375.825,-88.5 375.825,-12.5 375.825,-12.5 375.825,-6.5 381.825,-0.5 387.825,-0.5"/>
<text text-anchor="middle" x="499.688" y="-85.3" font-family="Times,serif" font-size="14.00">Complaint</text>
<polyline fill="none" stroke="black" points="375.825,-78.5 623.55,-78.5 "/>
<text text-anchor="start" x="383.825" y="-63.3" font-family="Times,serif" font-size="14.00">id :integer</text>
<text text-anchor="start" x="383.825" y="-49.3" font-family="Times,serif" font-size="14.00">content :text</text>
<text text-anchor="start" x="383.825" y="-35.3" font-family="Times,serif" font-size="14.00">user_id :integer</text>
<text text-anchor="start" x="383.825" y="-21.3" font-family="Times,serif" font-size="14.00">created_at :timestamp without time zone</text>
<text text-anchor="start" x="383.825" y="-7.3" font-family="Times,serif" font-size="14.00">updated_at :timestamp without time zone</text>
</g>
<!-- Enterprise -->
<g id="node3" class="node"><title>Enterprise</title>
<path fill="none" stroke="black" d="M237.825,-200.5C237.825,-200.5 461.55,-200.5 461.55,-200.5 467.55,-200.5 473.55,-206.5 473.55,-212.5 473.55,-212.5 473.55,-274.5 473.55,-274.5 473.55,-280.5 467.55,-286.5 461.55,-286.5 461.55,-286.5 237.825,-286.5 237.825,-286.5 231.825,-286.5 225.825,-280.5 225.825,-274.5 225.825,-274.5 225.825,-212.5 225.825,-212.5 225.825,-206.5 231.825,-200.5 237.825,-200.5"/>
<text text-anchor="middle" x="349.688" y="-271.3" font-family="Times,serif" font-size="14.00">Enterprise</text>
<polyline fill="none" stroke="black" points="225.825,-264.5 473.55,-264.5 "/>
<text text-anchor="start" x="233.825" y="-249.3" font-family="Times,serif" font-size="14.00">id :integer</text>
<text text-anchor="start" x="233.825" y="-235.3" font-family="Times,serif" font-size="14.00">name :character varying</text>
<text text-anchor="start" x="233.825" y="-221.3" font-family="Times,serif" font-size="14.00">created_at :timestamp without time zone</text>
<text text-anchor="start" x="233.825" y="-207.3" font-family="Times,serif" font-size="14.00">updated_at :timestamp without time zone</text>
</g>
<!-- Enterprise&#45;&gt;Complaint -->
<g id="edge1" class="edge"><title>Enterprise&#45;&gt;Complaint</title>
<path fill="none" stroke="#71d43b" d="M387.967,-193.758C408.403,-167.736 433.668,-135.566 454.999,-108.403"/>
<ellipse fill="none" stroke="#71d43b" cx="385.448" cy="-196.965" rx="4.00002" ry="4.00002"/>
<polygon fill="#71d43b" stroke="#71d43b" points="455.017,-108.381 464.732,-103.296 458.105,-104.449 461.193,-100.517 461.193,-100.517 461.193,-100.517 458.105,-104.449 457.654,-97.7373 455.017,-108.381 455.017,-108.381"/>
</g>
<!-- User -->
<g id="node4" class="node"><title>User</title>
<path fill="none" stroke="black" d="M503.053,-137.5C503.053,-137.5 798.323,-137.5 798.323,-137.5 804.323,-137.5 810.323,-143.5 810.323,-149.5 810.323,-149.5 810.323,-337.5 810.323,-337.5 810.323,-343.5 804.323,-349.5 798.323,-349.5 798.323,-349.5 503.053,-349.5 503.053,-349.5 497.053,-349.5 491.053,-343.5 491.053,-337.5 491.053,-337.5 491.053,-149.5 491.053,-149.5 491.053,-143.5 497.053,-137.5 503.053,-137.5"/>
<text text-anchor="middle" x="650.688" y="-334.3" font-family="Times,serif" font-size="14.00">User</text>
<polyline fill="none" stroke="black" points="491.053,-327.5 810.323,-327.5 "/>
<text text-anchor="start" x="499.053" y="-312.3" font-family="Times,serif" font-size="14.00">updated_at :timestamp without time zone</text>
<text text-anchor="start" x="499.053" y="-298.3" font-family="Times,serif" font-size="14.00">email :character varying</text>
<text text-anchor="start" x="499.053" y="-284.3" font-family="Times,serif" font-size="14.00">encrypted_password :character varying</text>
<text text-anchor="start" x="499.053" y="-270.3" font-family="Times,serif" font-size="14.00">reset_password_token :character varying</text>
<text text-anchor="start" x="499.053" y="-256.3" font-family="Times,serif" font-size="14.00">reset_password_sent_at :timestamp without time zone</text>
<text text-anchor="start" x="499.053" y="-242.3" font-family="Times,serif" font-size="14.00">remember_created_at :timestamp without time zone</text>
<text text-anchor="start" x="499.053" y="-228.3" font-family="Times,serif" font-size="14.00">sign_in_count :integer</text>
<text text-anchor="start" x="499.053" y="-214.3" font-family="Times,serif" font-size="14.00">current_sign_in_at :timestamp without time zone</text>
<text text-anchor="start" x="499.053" y="-200.3" font-family="Times,serif" font-size="14.00">last_sign_in_at :timestamp without time zone</text>
<text text-anchor="start" x="499.053" y="-186.3" font-family="Times,serif" font-size="14.00">current_sign_in_ip :inet</text>
<text text-anchor="start" x="499.053" y="-172.3" font-family="Times,serif" font-size="14.00">last_sign_in_ip :inet</text>
<text text-anchor="start" x="499.053" y="-158.3" font-family="Times,serif" font-size="14.00">created_at :timestamp without time zone</text>
<text text-anchor="start" x="499.053" y="-144.3" font-family="Times,serif" font-size="14.00">id :integer</text>
</g>
<!-- User&#45;&gt;Complaint -->
<g id="edge2" class="edge"><title>User&#45;&gt;Complaint</title>
<path fill="none" stroke="#271aef" d="M562.331,-130.737C556.439,-123.285 550.655,-115.969 545.128,-108.977"/>
<ellipse fill="none" stroke="#271aef" cx="564.977" cy="-134.085" rx="4.00002" ry="4.00002"/>
<polygon fill="#271aef" stroke="#271aef" points="544.968,-108.775 542.297,-98.14 541.867,-104.853 538.767,-100.931 538.767,-100.931 538.767,-100.931 541.867,-104.853 535.236,-103.722 544.968,-108.775 544.968,-108.775"/>
</g>
</g>
</svg>
