<?xml version="1.0" encoding="UTF-8" standalone="no"?>
<!DOCTYPE svg PUBLIC "-//W3C//DTD SVG 1.1//EN"
 "http://www.w3.org/Graphics/SVG/1.1/DTD/svg11.dtd">
<!-- Generated by graphviz version 2.38.0 (20140413.2041)
 -->
<!-- Title: models_diagram Pages: 1 -->
<svg width="398pt" height="153pt"
 viewBox="0.00 0.00 397.69 153.00" xmlns="http://www.w3.org/2000/svg" xmlns:xlink="http://www.w3.org/1999/xlink">
<g id="graph0" class="graph" transform="scale(1 1) rotate(0) translate(4 149)">
<title>models_diagram</title>
<polygon fill="none" stroke="none" points="-4,4 -4,-149 393.688,-149 393.688,4 -4,4"/>
<!-- _diagram_info -->
<g id="node1" class="node"><title>_diagram_info</title>
<text text-anchor="start" x="8" y="-130.6" font-family="Times,serif" font-size="13.00">Models diagram</text>
<text text-anchor="start" x="8" y="-117.6" font-family="Times,serif" font-size="13.00">Date: Aug 29 2016 &#45; 20:24</text>
<text text-anchor="start" x="8" y="-104.6" font-family="Times,serif" font-size="13.00">Migration version: 20160829230431</text>
<text text-anchor="start" x="8" y="-91.6" font-family="Times,serif" font-size="13.00">Generated by RailRoady 1.5.1</text>
<text text-anchor="start" x="8" y="-78.6" font-family="Times,serif" font-size="13.00">http://railroady.prestonlee.com</text>
</g>
<!-- Complaint -->
<g id="node2" class="node"><title>Complaint</title>
<ellipse fill="none" stroke="black" cx="316.688" cy="-18" rx="47.3909" ry="18"/>
<text text-anchor="middle" x="316.688" y="-13.8" font-family="Times,serif" font-size="14.00">Complaint</text>
</g>
<!-- Enterprise -->
<g id="node3" class="node"><title>Enterprise</title>
<ellipse fill="none" stroke="black" cx="271.688" cy="-108.5" rx="46.3959" ry="18"/>
<text text-anchor="middle" x="271.688" y="-104.3" font-family="Times,serif" font-size="14.00">Enterprise</text>
</g>
<!-- Enterprise&#45;&gt;Complaint -->
<g id="edge1" class="edge"><title>Enterprise&#45;&gt;Complaint</title>
<path fill="none" stroke="#a03f5e" d="M284.163,-82.9652C290.201,-71.0913 297.449,-56.8367 303.569,-44.8005"/>
<ellipse fill="none" stroke="#a03f5e" cx="282.177" cy="-86.8708" rx="4.00002" ry="4.00002"/>
<polygon fill="#a03f5e" stroke="#a03f5e" points="303.658,-44.625 312.202,-37.7508 305.924,-40.1681 308.191,-35.7112 308.191,-35.7112 308.191,-35.7112 305.924,-40.1681 304.179,-33.6715 303.658,-44.625 303.658,-44.625"/>
</g>
<!-- User -->
<g id="node4" class="node"><title>User</title>
<ellipse fill="none" stroke="black" cx="362.688" cy="-108.5" rx="27" ry="18"/>
<text text-anchor="middle" x="362.688" y="-104.3" font-family="Times,serif" font-size="14.00">User</text>
</g>
<!-- User&#45;&gt;Complaint -->
<g id="edge2" class="edge"><title>User&#45;&gt;Complaint</title>
<path fill="none" stroke="#879d28" d="M350.351,-83.7649C344.069,-71.6786 336.424,-56.97 330.008,-44.6264"/>
<ellipse fill="none" stroke="#879d28" cx="352.406" cy="-87.7185" rx="4.00002" ry="4.00002"/>
<polygon fill="#879d28" stroke="#879d28" points="329.996,-44.6037 329.377,-33.6553 327.69,-40.1672 325.384,-35.7307 325.384,-35.7307 325.384,-35.7307 327.69,-40.1672 321.391,-37.8061 329.996,-44.6037 329.996,-44.6037"/>
</g>
</g>
</svg>
